# xmcd
#
# Track frame offsets: 
#        150
#        1125
#        36807
#        56027
#        79785
#        94765
#        109942
#        133952
#        146920
#        171162
#        183780
#        213802
#        225607
#
# Disc length: 3346 seconds
#
# Revision: 1
# Processed by: cddbd v1.5.2PL0 Copyright (c) Steve Scherf et al.
# Submitted via: ExactAudioCopy v1.3
#
DISCID=ad0d100d
DTITLE=Beau Jocque and The Zydeco Hi-Rollers - Give Him Cornbread, Live!
DYEAR=1900
DGENRE=
TTITLE0=Introduction
TTITLE1=Give Him Cornbread
TTITLE2=Bad Bad Woman
TTITLE3=Beau Jocque Boogie
TTITLE4=Baby Please Don't Go
TTITLE5=Grand Marais
TTITLE6=Damballah
TTITLE7=Gardez Donc! (Look at That!)
TTITLE8=Brownskin Woman
TTITLE9=Nonc Adam
TTITLE10=Boogie Chillen
TTITLE11=I Went to the Dance Last Night
TTITLE12=Do It All Night
EXTD=
EXTT0=
EXTT1=
EXTT2=
EXTT3=
EXTT4=
EXTT5=
EXTT6=
EXTT7=
EXTT8=
EXTT9=
EXTT10=
EXTT11=
EXTT12=
PLAYORDER=
